# xmcd CD database file
#
# Track frame offsets:
#	150
#	22479
#	47937
#	75121
#	97722
#	116812
#	137757
#	158785
#	178445
#	202336
#	223252
#	236428
#
# Disc length: 3395 seconds
#
# Revision: 1
# Processed by: cddbd v1.5.2PL0 Copyright (c) Steve Scherf et al.
# Submitted via: CDex 1.70beta2
#
DISCID=af0d410c
DTITLE=Nnenna Freelon - Homefree - UCCO-1101
DYEAR=2010
DGENRE=Classical
TTITLE0=The Lamp Is Low
TTITLE1=I Feel Pretty
TTITLE2=The Very Thought of You
TTITLE3=Thema from Valley of the Dolls
TTITLE4=Smile
TTITLE5=You and the Night and the Music
TTITLE6=Cell Phone Blues
TTITLE7=Get Out of Town
TTITLE8=Skylark
TTITLE9=Lift Every Voice and Sing
TTITLE10=America the Beautiful
TTITLE11=Skylark [Reprise]
EXTD=YEAR: 2010
EXTT0=
EXTT1=
EXTT2=
EXTT3=
EXTT4=
EXTT5=
EXTT6=
EXTT7=
EXTT8=
EXTT9=
EXTT10=
EXTT11=
PLAYORDER=
